<?xml version="1.0" encoding="UTF-8"?>
<svg id="Layer_1" xmlns="http://www.w3.org/2000/svg" version="1.1" viewBox="0 0 256 256">
  <!-- Generator: Adobe Illustrator 29.3.1, SVG Export Plug-In . SVG Version: 2.1.0 Build 151)  -->
  <defs>
    <style>
      .st0 {
        fill: #37ebf3;
      }

      .st1 {
        fill: #fdf500;
      }
    </style>
  </defs>
  <path class="st1" d="M0,20C4.07,10.15,10.97,5.98,21.52,5.02c73.43.93,147.31-1.96,220.5,1.47,7.03,1.77,11.1,7.22,13.98,13.52v216c-4.07,9.85-10.97,14.02-21.52,14.98l-211.03.06c-11.41-.79-18.95-4.09-23.45-15.05V20ZM84.16,56.95c0-14.17-11.49-25.66-25.66-25.66s-25.66,11.49-25.66,25.66,11.49,25.66,25.66,25.66,25.66-11.49,25.66-25.66ZM224.92,57.39c0-14.17-11.49-25.66-25.66-25.66s-25.66,11.49-25.66,25.66,11.49,25.66,25.66,25.66,25.66-11.49,25.66-25.66ZM84.52,128c0-14.17-11.49-25.66-25.66-25.66s-25.66,11.49-25.66,25.66,11.49,25.66,25.66,25.66,25.66-11.49,25.66-25.66ZM224.34,128c0-14.2-11.51-25.71-25.71-25.71s-25.71,11.51-25.71,25.71,11.51,25.71,25.71,25.71,25.71-11.51,25.71-25.71ZM84.88,197.12c0-14.19-11.5-25.69-25.69-25.69s-25.69,11.5-25.69,25.69,11.5,25.69,25.69,25.69,25.69-11.5,25.69-25.69ZM226.38,197.65c0-14.17-11.49-25.66-25.66-25.66s-25.66,11.49-25.66,25.66,11.49,25.66,25.66,25.66,25.66-11.49,25.66-25.66Z"/>
  <g>
    <circle class="st0" cx="200.71" cy="197.65" r="25.66"/>
    <circle class="st0" cx="199.26" cy="57.39" r="25.66"/>
    <circle class="st0" cx="198.63" cy="128" r="25.71"/>
  </g>
  <g>
    <circle class="st0" cx="59.18" cy="197.12" r="25.69"/>
    <circle class="st0" cx="58.5" cy="56.95" r="25.66"/>
    <circle class="st0" cx="58.86" cy="128" r="25.66"/>
  </g>
</svg>