<?xml version="1.0" encoding="UTF-8"?>
<svg id="Layer_1" xmlns="http://www.w3.org/2000/svg" version="1.1" viewBox="0 0 256 256">
  <!-- Generator: Adobe Illustrator 29.3.1, SVG Export Plug-In . SVG Version: 2.1.0 Build 151)  -->
  <defs>
    <style>
      .st0 {
        fill: #37ebf3;
      }

      .st1 {
        fill: #fdf500;
      }
    </style>
  </defs>
  <path class="st1" d="M0,20C4.07,10.15,10.97,5.98,21.52,5.02c73.43.93,147.31-1.96,220.5,1.47,7.03,1.77,11.1,7.22,13.98,13.52v216c-4.07,9.85-10.97,14.02-21.52,14.98l-211.03.06c-11.41-.79-18.95-4.09-23.45-15.05V20ZM84.17,56.93c0-14.18-11.49-25.67-25.67-25.67s-25.67,11.49-25.67,25.67,11.49,25.67,25.67,25.67,25.67-11.49,25.67-25.67ZM224.93,57.4c0-14.18-11.49-25.67-25.67-25.67s-25.67,11.49-25.67,25.67,11.49,25.67,25.67,25.67,25.67-11.49,25.67-25.67ZM153.68,128c0-14.18-11.5-25.68-25.68-25.68s-25.68,11.5-25.68,25.68,11.5,25.68,25.68,25.68,25.68-11.5,25.68-25.68ZM84.86,197.14c0-14.18-11.5-25.68-25.68-25.68s-25.68,11.5-25.68,25.68,11.5,25.68,25.68,25.68,25.68-11.5,25.68-25.68ZM226.37,197.66c0-14.17-11.48-25.65-25.65-25.65s-25.65,11.48-25.65,25.65,11.48,25.65,25.65,25.65,25.65-11.48,25.65-25.65Z"/>
  <circle class="st0" cx="128" cy="128" r="25.68"/>
  <circle class="st0" cx="59.19" cy="197.14" r="25.68"/>
  <circle class="st0" cx="58.5" cy="56.93" r="25.67"/>
  <g>
    <circle class="st0" cx="199.26" cy="57.4" r="25.67"/>
    <circle class="st0" cx="200.72" cy="197.66" r="25.65"/>
  </g>
</svg>