<?xml version="1.0" encoding="UTF-8"?>
<svg id="Layer_1" xmlns="http://www.w3.org/2000/svg" version="1.1" viewBox="0 0 256 256">
  <!-- Generator: Adobe Illustrator 29.3.1, SVG Export Plug-In . SVG Version: 2.1.0 Build 151)  -->
  <defs>
    <style>
      .st0 {
        fill: #fff;
      }

      .st1 {
        fill: #37ebf3;
      }

      .st2 {
        fill: #fdf500;
      }
    </style>
  </defs>
  <path class="st2" d="M0,20.3C4.07,10.45,10.97,6.27,21.52,5.31c73.43.93,147.31-1.96,220.5,1.47,7.03,1.77,11.1,7.22,13.98,13.52v216c-4.07,9.85-10.97,14.02-21.52,14.98l-211.03.06C12.04,250.55,4.51,247.25,0,236.3V20.3ZM153.68,128.29c0-14.18-11.5-25.68-25.68-25.68s-25.68,11.5-25.68,25.68,11.5,25.68,25.68,25.68,25.68-11.5,25.68-25.68Z"/>
  <path class="st0" d="M119.24-24.94v-20h256v20c-2.89-6.3-6.96-11.74-13.98-13.52-73.19-3.42-147.07-.54-220.5-1.47-10.54.96-17.44,5.14-21.52,14.98Z"/>
  <path class="st0" d="M-25.68,342.39c4.51,10.95,12.04,14.25,23.45,15.05l211.03-.06c10.54-.96,17.44-5.14,21.52-14.98v20H-25.68v-20Z"/>
  <circle class="st1" cx="128" cy="128" r="25.68"/>
</svg>